<svg width="230" height="40" viewBox="0 0 230 40" fill="none" xmlns="http://www.w3.org/2000/svg">
<path d="M7.63636 31.4119C6.24432 31.4119 5.00379 31.1705 3.91477 30.6875C2.82576 30.1951 1.96402 29.4706 1.32955 28.5142C0.704545 27.5483 0.392045 26.3456 0.392045 24.9062C0.392045 23.6941 0.614583 22.6761 1.05966 21.8523C1.50473 21.0284 2.1108 20.3655 2.87784 19.8636C3.64489 19.3617 4.5161 18.983 5.49148 18.7273C6.47633 18.4716 7.50852 18.2917 8.58807 18.1875C9.85701 18.0549 10.8797 17.9318 11.6562 17.8182C12.4328 17.6951 12.9962 17.5152 13.3466 17.2784C13.697 17.0417 13.8722 16.6913 13.8722 16.2273V16.142C13.8722 15.2424 13.5881 14.5464 13.0199 14.054C12.4612 13.5616 11.6657 13.3153 10.6335 13.3153C9.54451 13.3153 8.67803 13.5568 8.03409 14.0398C7.39015 14.5133 6.96402 15.1098 6.75568 15.8295L1.15909 15.375C1.44318 14.0492 2.00189 12.9034 2.83523 11.9375C3.66856 10.9621 4.74337 10.214 6.05966 9.69318C7.38542 9.16288 8.91951 8.89773 10.6619 8.89773C11.8741 8.89773 13.0341 9.03977 14.142 9.32386C15.2595 9.60795 16.2491 10.0483 17.1108 10.6449C17.982 11.2415 18.6686 12.0085 19.1705 12.946C19.6723 13.8741 19.9233 14.9867 19.9233 16.2841V31H14.1847V27.9744H14.0142C13.6638 28.6562 13.1951 29.2576 12.608 29.7784C12.0208 30.2898 11.3153 30.6922 10.4915 30.9858C9.66761 31.2699 8.71591 31.4119 7.63636 31.4119ZM9.36932 27.2358C10.2595 27.2358 11.0455 27.0606 11.7273 26.7102C12.4091 26.3504 12.9441 25.8674 13.3324 25.2614C13.7206 24.6553 13.9148 23.9687 13.9148 23.2017V20.8864C13.7254 21.0095 13.465 21.1231 13.1335 21.2273C12.8116 21.322 12.447 21.4119 12.0398 21.4972C11.6326 21.5729 11.2254 21.6439 10.8182 21.7102C10.411 21.767 10.0417 21.8191 9.71023 21.8665C9 21.9706 8.37974 22.1364 7.84943 22.3636C7.31913 22.5909 6.9072 22.8987 6.61364 23.2869C6.32008 23.6657 6.1733 24.1392 6.1733 24.7074C6.1733 25.5312 6.47159 26.161 7.06818 26.5966C7.67424 27.0227 8.44129 27.2358 9.36932 27.2358ZM42.7713 15.4034L37.2315 15.7443C37.1368 15.2708 36.9332 14.8447 36.6207 14.4659C36.3082 14.0777 35.8963 13.7699 35.3849 13.5426C34.883 13.3059 34.2817 13.1875 33.581 13.1875C32.6435 13.1875 31.8527 13.3864 31.2088 13.7841C30.5649 14.1723 30.2429 14.6932 30.2429 15.3466C30.2429 15.8674 30.4512 16.3078 30.8679 16.6676C31.2846 17.0275 31.9995 17.3163 33.0128 17.5341L36.9616 18.3295C39.0829 18.7652 40.6643 19.4659 41.706 20.4318C42.7476 21.3977 43.2685 22.6667 43.2685 24.2386C43.2685 25.6686 42.8471 26.9233 42.0043 28.0028C41.1709 29.0824 40.0251 29.9252 38.5668 30.5312C37.1179 31.1278 35.4465 31.4261 33.5526 31.4261C30.6643 31.4261 28.3632 30.8248 26.6491 29.6222C24.9446 28.41 23.9455 26.7623 23.652 24.679L29.6037 24.3665C29.7836 25.2472 30.2192 25.9195 30.9105 26.3835C31.6018 26.8381 32.4872 27.0653 33.5668 27.0653C34.6274 27.0653 35.4796 26.8617 36.1236 26.4545C36.777 26.0379 37.1084 25.5028 37.1179 24.8494C37.1084 24.3002 36.8764 23.8504 36.4219 23.5C35.9673 23.1402 35.2666 22.8655 34.3196 22.6761L30.5412 21.9233C28.4105 21.4972 26.8243 20.7585 25.7827 19.7074C24.7505 18.6562 24.2344 17.3163 24.2344 15.6875C24.2344 14.286 24.6132 13.0786 25.3707 12.0653C26.1378 11.0521 27.2126 10.2708 28.5952 9.72159C29.9872 9.17235 31.616 8.89773 33.4815 8.89773C36.2372 8.89773 38.4058 9.48011 39.9872 10.6449C41.5781 11.8097 42.5062 13.3958 42.7713 15.4034ZM53.13 18.3864V31H47.0788V1.90909H52.9595V13.0312H53.2152C53.7076 11.7434 54.5031 10.7348 55.6016 10.0057C56.7 9.26705 58.0779 8.89773 59.7351 8.89773C61.2502 8.89773 62.5713 9.22917 63.6982 9.89205C64.8345 10.5455 65.7152 11.4877 66.3402 12.7188C66.9747 13.9403 67.2872 15.4034 67.2777 17.108V31H61.2266V18.1875C61.236 16.8428 60.8951 15.7964 60.2038 15.0483C59.522 14.3002 58.5656 13.9261 57.3345 13.9261C56.5107 13.9261 55.7815 14.1013 55.147 14.4517C54.522 14.8021 54.0296 15.3134 53.6697 15.9858C53.3194 16.6487 53.1394 17.4489 53.13 18.3864ZM75.5767 31.3693C74.6392 31.3693 73.8343 31.0379 73.1619 30.375C72.4991 29.7027 72.1676 28.8977 72.1676 27.9602C72.1676 27.0322 72.4991 26.2367 73.1619 25.5739C73.8343 24.911 74.6392 24.5795 75.5767 24.5795C76.4858 24.5795 77.2813 24.911 77.9631 25.5739C78.6449 26.2367 78.9858 27.0322 78.9858 27.9602C78.9858 28.5852 78.8248 29.1581 78.5028 29.679C78.1903 30.1903 77.7784 30.6023 77.267 30.9148C76.7557 31.2178 76.1922 31.3693 75.5767 31.3693Z" fill="white"/>
<path d="M84.0675 31V1.90909H90.1186V12.8466H90.3033C90.5684 12.2595 90.9519 11.6629 91.4538 11.0568C91.9652 10.4413 92.6281 9.92992 93.4425 9.52273C94.2663 9.10606 95.2891 8.89773 96.5107 8.89773C98.1016 8.89773 99.5694 9.31439 100.914 10.1477C102.259 10.9716 103.334 12.2169 104.138 13.8835C104.943 15.5407 105.346 17.6193 105.346 20.1193C105.346 22.553 104.953 24.608 104.167 26.2841C103.39 27.9508 102.33 29.215 100.985 30.0767C99.6499 30.929 98.1536 31.3551 96.4964 31.3551C95.3222 31.3551 94.3232 31.161 93.4993 30.7727C92.6849 30.3845 92.0173 29.8968 91.4964 29.3097C90.9756 28.7131 90.5779 28.1117 90.3033 27.5057H90.0334V31H84.0675ZM89.9908 20.0909C89.9908 21.3883 90.1707 22.5199 90.5305 23.4858C90.8904 24.4517 91.4112 25.2045 92.093 25.7443C92.7749 26.2746 93.6035 26.5398 94.5788 26.5398C95.5637 26.5398 96.397 26.2699 97.0788 25.7301C97.7607 25.1809 98.2768 24.4233 98.6271 23.4574C98.987 22.482 99.1669 21.3598 99.1669 20.0909C99.1669 18.8314 98.9917 17.7235 98.6413 16.767C98.291 15.8106 97.7749 15.0625 97.093 14.5227C96.4112 13.983 95.5732 13.7131 94.5788 13.7131C93.594 13.7131 92.7607 13.9735 92.0788 14.4943C91.4065 15.0152 90.8904 15.7538 90.5305 16.7102C90.1707 17.6667 89.9908 18.7936 89.9908 20.0909ZM109.384 31V9.18182H115.25V12.9886H115.477C115.875 11.6345 116.543 10.6117 117.48 9.92045C118.418 9.2197 119.497 8.86932 120.719 8.86932C121.022 8.86932 121.348 8.88826 121.699 8.92614C122.049 8.96402 122.357 9.0161 122.622 9.08239V14.4517C122.338 14.3665 121.945 14.2907 121.443 14.2244C120.941 14.1581 120.482 14.125 120.065 14.125C119.175 14.125 118.38 14.3191 117.679 14.7074C116.988 15.0862 116.438 15.6165 116.031 16.2983C115.634 16.9801 115.435 17.7661 115.435 18.6562V31H109.384ZM125.751 31V9.18182H131.802V31H125.751ZM128.79 6.36932C127.891 6.36932 127.119 6.07102 126.475 5.47443C125.841 4.86837 125.523 4.14394 125.523 3.30114C125.523 2.4678 125.841 1.75284 126.475 1.15625C127.119 0.550188 127.891 0.247158 128.79 0.247158C129.69 0.247158 130.457 0.550188 131.092 1.15625C131.736 1.75284 132.058 2.4678 132.058 3.30114C132.058 4.14394 131.736 4.86837 131.092 5.47443C130.457 6.07102 129.69 6.36932 128.79 6.36932ZM144.689 31.3551C143.032 31.3551 141.531 30.929 140.186 30.0767C138.851 29.215 137.79 27.9508 137.004 26.2841C136.228 24.608 135.839 22.553 135.839 20.1193C135.839 17.6193 136.242 15.5407 137.047 13.8835C137.852 12.2169 138.922 10.9716 140.257 10.1477C141.602 9.31439 143.074 8.89773 144.675 8.89773C145.896 8.89773 146.914 9.10606 147.729 9.52273C148.553 9.92992 149.215 10.4413 149.717 11.0568C150.229 11.6629 150.617 12.2595 150.882 12.8466H151.067V1.90909H157.104V31H151.138V27.5057H150.882C150.598 28.1117 150.196 28.7131 149.675 29.3097C149.163 29.8968 148.496 30.3845 147.672 30.7727C146.857 31.161 145.863 31.3551 144.689 31.3551ZM146.607 26.5398C147.582 26.5398 148.406 26.2746 149.078 25.7443C149.76 25.2045 150.281 24.4517 150.641 23.4858C151.01 22.5199 151.195 21.3883 151.195 20.0909C151.195 18.7936 151.015 17.6667 150.655 16.7102C150.295 15.7538 149.774 15.0152 149.092 14.4943C148.411 13.9735 147.582 13.7131 146.607 13.7131C145.612 13.7131 144.774 13.983 144.092 14.5227C143.411 15.0625 142.894 15.8106 142.544 16.767C142.194 17.7235 142.018 18.8314 142.018 20.0909C142.018 21.3598 142.194 22.482 142.544 23.4574C142.904 24.4233 143.42 25.1809 144.092 25.7301C144.774 26.2699 145.612 26.5398 146.607 26.5398ZM171.908 39.6364C169.948 39.6364 168.267 39.3665 166.866 38.8267C165.474 38.2964 164.366 37.572 163.542 36.6534C162.718 35.7348 162.183 34.7027 161.937 33.5568L167.533 32.804C167.704 33.2396 167.974 33.6468 168.343 34.0256C168.712 34.4044 169.2 34.7074 169.806 34.9347C170.422 35.1714 171.17 35.2898 172.05 35.2898C173.367 35.2898 174.451 34.9678 175.303 34.3239C176.165 33.6894 176.596 32.6241 176.596 31.1278V27.1364H176.34C176.075 27.7424 175.677 28.3153 175.147 28.8551C174.617 29.3949 173.935 29.8352 173.102 30.1761C172.268 30.517 171.274 30.6875 170.119 30.6875C168.48 30.6875 166.989 30.3087 165.644 29.5511C164.309 28.7841 163.244 27.6146 162.448 26.0426C161.662 24.4612 161.269 22.4631 161.269 20.0483C161.269 17.5767 161.672 15.5123 162.477 13.8551C163.281 12.1979 164.352 10.9574 165.687 10.1335C167.031 9.30966 168.504 8.89773 170.104 8.89773C171.326 8.89773 172.349 9.10606 173.173 9.52273C173.996 9.92992 174.659 10.4413 175.161 11.0568C175.673 11.6629 176.066 12.2595 176.34 12.8466H176.567V9.18182H182.576V31.2131C182.576 33.0691 182.121 34.6222 181.212 35.8722C180.303 37.1222 179.044 38.0597 177.434 38.6847C175.834 39.3191 173.992 39.6364 171.908 39.6364ZM172.036 26.142C173.012 26.142 173.835 25.9006 174.508 25.4176C175.19 24.9252 175.71 24.2244 176.07 23.3153C176.44 22.3968 176.624 21.2983 176.624 20.0199C176.624 18.7415 176.444 17.6335 176.085 16.696C175.725 15.7491 175.204 15.0152 174.522 14.4943C173.84 13.9735 173.012 13.7131 172.036 13.7131C171.042 13.7131 170.204 13.983 169.522 14.5227C168.84 15.053 168.324 15.7917 167.974 16.7386C167.623 17.6856 167.448 18.7794 167.448 20.0199C167.448 21.2794 167.623 22.3684 167.974 23.2869C168.334 24.196 168.85 24.9015 169.522 25.4034C170.204 25.8958 171.042 26.142 172.036 26.142ZM197.335 31.4261C195.09 31.4261 193.158 30.9716 191.539 30.0625C189.929 29.1439 188.689 27.8466 187.817 26.1705C186.946 24.4848 186.511 22.4915 186.511 20.1903C186.511 17.946 186.946 15.9763 187.817 14.2812C188.689 12.5862 189.915 11.2652 191.496 10.3182C193.087 9.37121 194.953 8.89773 197.093 8.89773C198.532 8.89773 199.872 9.12973 201.113 9.59375C202.363 10.0483 203.452 10.7348 204.38 11.6534C205.317 12.572 206.047 13.7273 206.567 15.1193C207.088 16.5019 207.349 18.1212 207.349 19.9773V21.6392H188.925V17.8892H201.653C201.653 17.018 201.463 16.2462 201.085 15.5739C200.706 14.9015 200.18 14.3759 199.508 13.9972C198.845 13.6089 198.073 13.4148 197.192 13.4148C196.274 13.4148 195.46 13.6278 194.749 14.054C194.049 14.4706 193.499 15.0341 193.102 15.7443C192.704 16.4451 192.5 17.2263 192.491 18.0881V21.6534C192.491 22.733 192.69 23.6657 193.087 24.4517C193.495 25.2377 194.067 25.8438 194.806 26.2699C195.545 26.696 196.421 26.9091 197.434 26.9091C198.106 26.9091 198.722 26.8144 199.281 26.625C199.839 26.4356 200.317 26.1515 200.715 25.7727C201.113 25.3939 201.416 24.9299 201.624 24.3807L207.221 24.75C206.937 26.0947 206.354 27.2689 205.474 28.2727C204.603 29.267 203.476 30.0436 202.093 30.6023C200.72 31.1515 199.134 31.4261 197.335 31.4261ZM229.451 15.4034L223.911 15.7443C223.817 15.2708 223.613 14.8447 223.3 14.4659C222.988 14.0777 222.576 13.7699 222.065 13.5426C221.563 13.3059 220.961 13.1875 220.261 13.1875C219.323 13.1875 218.532 13.3864 217.888 13.7841C217.245 14.1723 216.923 14.6932 216.923 15.3466C216.923 15.8674 217.131 16.3078 217.548 16.6676C217.964 17.0275 218.679 17.3163 219.692 17.5341L223.641 18.3295C225.763 18.7652 227.344 19.4659 228.386 20.4318C229.427 21.3977 229.948 22.6667 229.948 24.2386C229.948 25.6686 229.527 26.9233 228.684 28.0028C227.851 29.0824 226.705 29.9252 225.246 30.5312C223.798 31.1278 222.126 31.4261 220.232 31.4261C217.344 31.4261 215.043 30.8248 213.329 29.6222C211.624 28.41 210.625 26.7623 210.332 24.679L216.283 24.3665C216.463 25.2472 216.899 25.9195 217.59 26.3835C218.281 26.8381 219.167 27.0653 220.246 27.0653C221.307 27.0653 222.159 26.8617 222.803 26.4545C223.457 26.0379 223.788 25.5028 223.798 24.8494C223.788 24.3002 223.556 23.8504 223.102 23.5C222.647 23.1402 221.946 22.8655 220.999 22.6761L217.221 21.9233C215.09 21.4972 213.504 20.7585 212.462 19.7074C211.43 18.6562 210.914 17.3163 210.914 15.6875C210.914 14.286 211.293 13.0786 212.05 12.0653C212.817 11.0521 213.892 10.2708 215.275 9.72159C216.667 9.17235 218.296 8.89773 220.161 8.89773C222.917 8.89773 225.085 9.48011 226.667 10.6449C228.258 11.8097 229.186 13.3958 229.451 15.4034Z" fill="#53E6DC"/>
</svg>
