<svg width="82" height="51" viewBox="0 0 82 51" fill="none" xmlns="http://www.w3.org/2000/svg">
<path d="M33.2625 0H42.1179L41.8183 50.1537H34.5842L34.6547 29.0948L18.1865 29.1829L9.14609 39.2013L0 39.1485L33.2625 0ZM34.6547 23.5878L35.5711 7.68342L22.0987 23.3058L34.6459 23.5878H34.6547Z" fill="#F7F7F7"/>
<path d="M46.0741 0H66.2695C71.4505 0 74.7548 1.83274 76.94 5.19865C78.2264 7.18999 79.0018 10.3004 79.0018 12.8997C79.0018 15.9396 78.3321 18.9795 76.7637 20.9268C75.9443 21.9577 75.1865 22.5833 73.6534 23.438C75.909 24.3808 77.0457 25.2002 78.1647 26.3809C80.1384 28.478 81.1253 31.3769 81.1253 35.0688C81.1253 38.1704 80.4733 41.7213 78.6934 44.2414C76.0236 48.0038 71.4946 50.1537 65.6703 50.1537H46.0741V0ZM63.8024 21.3233C66.34 21.3233 68.3137 20.9444 69.7235 20.1778C71.944 18.9795 73.0454 16.8119 73.0454 13.6839C73.0454 10.5559 71.8647 8.43238 69.5121 7.32216C68.1816 6.71419 66.2078 6.40579 63.5909 6.40579H52.8676V21.3321H63.8024V21.3233ZM66.3312 42.8051C70.0231 42.8051 71.7061 41.4306 73.0454 39.7829C74.0322 38.3202 74.3054 37.0954 74.3054 35.016C74.3054 31.5179 73.3009 29.4472 70.4108 28.1784C68.8865 27.5088 67.2652 27.4118 64.7452 27.4118H53.6606L53.7487 42.7963H66.34L66.3312 42.8051Z" fill="#F7F7F7"/>
</svg>
