<?xml version="1.0" encoding="UTF-8"?>
<svg id="Layer_1" data-name="Layer 1" xmlns="http://www.w3.org/2000/svg" viewBox="0 0 127.11 127.11">
  <defs>
    <style>
      .cls-1 {
        fill: #fff;
      }

      .cls-2 {
        fill: #71dbd4;
      }
    </style>
  </defs>
  <circle class="cls-2" cx="63.56" cy="63.56" r="63.56"/>
  <g>
    <path class="cls-1" d="m50.92,31.71h10.05l-.34,56.92h-8.21l.08-23.9-18.69.1-10.26,11.37-10.38-.06L50.92,31.71Zm1.58,26.77l1.04-18.05-15.29,17.73,14.24.32Z"/>
    <path class="cls-1" d="m65.46,31.71h22.92c5.88,0,9.63,2.08,12.11,5.9,1.46,2.26,2.34,5.79,2.34,8.74,0,3.45-.76,6.9-2.54,9.11-.93,1.17-1.79,1.88-3.53,2.85,2.56,1.07,3.85,2,5.12,3.34,2.24,2.38,3.36,5.67,3.36,9.86,0,3.52-.74,7.55-2.76,10.41-3.03,4.27-8.17,6.71-14.78,6.71h-22.24V31.71Zm20.12,24.2c2.88,0,5.12-.43,6.72-1.3,2.52-1.36,3.77-3.82,3.77-7.37s-1.34-5.96-4.01-7.22c-1.51-.69-3.75-1.04-6.72-1.04h-12.17v16.94h12.41Zm2.87,24.38c4.19,0,6.1-1.56,7.62-3.43,1.12-1.66,1.43-3.05,1.43-5.41,0-3.97-1.14-6.32-4.42-7.76-1.73-.76-3.57-.87-6.43-.87h-12.58l.1,17.46h14.29Z"/>
  </g>
</svg>