<?xml version="1.0" encoding="UTF-8"?>
<svg id="Layer_1" data-name="Layer 1" xmlns="http://www.w3.org/2000/svg" viewBox="0 0 92 56.9">
  <defs>
    <style>
      .cls-1 {
        fill: #fff;
      }
    </style>
  </defs>
  <path class="cls-1" d="m37.7,0h10.1l-.3,56.9h-8.2l.1-23.9-18.7.1-10.3,11.4-10.4-.1L37.7,0Zm1.5,26.8l1-18-15.3,17.7,14.3.3Z"/>
  <path class="cls-1" d="m52.2,0h22.9c5.9,0,9.6,2.1,12.1,5.9,1.5,2.3,2.3,5.8,2.3,8.7,0,3.4-.8,6.9-2.5,9.1-.9,1.2-1.8,1.9-3.5,2.8,2.6,1.1,3.8,2,5.1,3.3,2.2,2.4,3.4,5.7,3.4,9.9,0,3.5-.7,7.6-2.8,10.4-3,4.3-8.2,6.7-14.8,6.7h-22.2s0-56.8,0-56.8Zm20.1,24.2c2.9,0,5.1-.4,6.7-1.3,2.5-1.4,3.8-3.8,3.8-7.4s-1.3-6-4-7.2c-1.5-.7-3.8-1-6.7-1h-12.2v16.9h12.4Zm2.9,24.4c4.2,0,6.1-1.6,7.6-3.4,1.1-1.7,1.4-3,1.4-5.4,0-4-1.1-6.3-4.4-7.8-1.7-.8-3.6-.9-6.4-.9h-12.6l.1,17.5h14.3Z"/>
</svg>